<?xml version="1.0" encoding="iso-8859-1"?>
<!-- Generator: Adobe Illustrator 19.0.0, SVG Export Plug-In . SVG Version: 6.00 Build 0)  -->
<svg version="1.1" id="Layer_1" xmlns="http://www.w3.org/2000/svg" xmlns:xlink="http://www.w3.org/1999/xlink" x="0px" y="0px"
	 viewBox="0 0 512 512" style="enable-background:new 0 0 512 512;" xml:space="preserve">
<path style="fill:#FFD0AD;" d="M331.405,116.868c11.505,0,20.831-9.326,20.831-20.831s-9.326-20.831-20.831-20.831h-155.21
	c-11.505,0-20.831,9.326-20.831,20.831s9.326,20.831,20.831,20.831H331.405z"/>
<path style="fill:#ECB593;" d="M155.363,96.036c0,11.505,9.326,20.831,20.831,20.831h155.21c11.505,0,20.831-9.326,20.831-20.831
	H155.363z"/>
<path style="fill:#FFD0AD;" d="M409.42,124.109c-11.902,0-21.55,9.648-21.55,21.55v43.197h-53.207h-20.078h-39.808v-7.201
	c30.625-7.319,53.576-34.985,53.576-67.768V69.679c0-2.573-0.152-5.111-0.428-7.613c-67.749-1.099-116.965-29.665-130.138-38.161
	c-10.737,12.268-17.279,28.289-17.279,45.774v44.207c0,32.784,22.953,60.449,53.576,67.768v7.201h-36.673h-23.285h-50v-43.197
	c0-11.902-9.648-21.55-21.55-21.55l0,0c-11.902,0-21.55,9.648-21.55,21.55v63.804c0,11.975,9.708,21.683,21.683,21.683h71.418
	v74.484c0,8.947,1.589,17.541,4.498,25.515v180.854h50.93V375.988l49.677-2.496v2.496V512h49.673c0,0-0.798-176.145,0-177.641
	c4.519-8.473,5.757-18.565,5.757-28.729v-74.484h74.625c11.975,0,21.683-9.708,21.683-21.683v-63.804
	C430.97,133.757,421.322,124.109,409.42,124.109z"/>
<path style="fill:#FFFFFF;" d="M275.547,114.869c0,11.661-9.454,21.115-21.115,21.115c-11.661,0-21.115-9.454-21.115-21.115H275.547
	z"/>
<g>
	<circle style="fill:#844235;" cx="230.71" cy="84.42" r="9.214"/>
	<circle style="fill:#844235;" cx="275.546" cy="84.42" r="9.214"/>
</g>
<rect x="174.125" y="281.934" style="fill:#174F79;" width="160.529" height="23.701"/>
<path style="fill:#73AFD6;" d="M174.128,305.632c0,8.947,1.589,17.541,4.498,25.515v0.045c29.078,0.94,50.93,20.63,50.93,44.795
	l0.001,2.002c6.231,1.692,12.777,2.596,19.525,2.596h10.626c6.748,0,13.295-0.904,19.527-2.596l-0.002-2.002
	c0-30.1,19.948-44.51,51.194-44.826c3.282-7.759,4.234-16.618,4.234-25.53H174.128z"/>
<path style="fill:#844235;" d="M258.674,0h-8.484c-20.839,0-39.604,9.284-52.401,23.906c13.173,8.496,62.388,37.062,130.138,38.161
	C324.101,27.291,294.425,0,258.674,0z"/>
<path style="opacity:0.29;fill:#174F79;enable-background:new    ;" d="M229.579,375.988l0.001,2.002
	c6.231,1.692,12.777,2.596,19.525,2.596h10.626c6.748,0,13.295-0.904,19.527-2.596l-0.002-2.002c0-7.899,1.386-14.707,3.978-20.474
	h-59.36C227.533,361.652,229.579,368.609,229.579,375.988z"/>
<g>
</g>
<g>
</g>
<g>
</g>
<g>
</g>
<g>
</g>
<g>
</g>
<g>
</g>
<g>
</g>
<g>
</g>
<g>
</g>
<g>
</g>
<g>
</g>
<g>
</g>
<g>
</g>
<g>
</g>
</svg>
